<svg width="66" height="27" viewBox="0 0 66 27" fill="none" xmlns="http://www.w3.org/2000/svg">
<g clip-path="url(#clip0_47_462)">
<g clip-path="url(#clip1_47_462)">
<path fill-rule="evenodd" clip-rule="evenodd" d="M27.0322 7.83641C27.0368 7.59308 27.108 7.35566 27.2381 7.15002L31.4446 0.686472C31.591 0.474694 31.7866 0.301595 32.0146 0.182029C32.2426 0.0624631 32.4962 0 32.7536 0C33.0111 0 33.2647 0.0624631 33.4927 0.182029C33.7206 0.301595 33.9162 0.474694 34.0626 0.686472L38.2685 7.15002C38.3988 7.35562 38.4702 7.59303 38.475 7.83641C38.4457 8.21081 38.2703 8.55865 37.9867 8.80481C37.7031 9.05097 37.334 9.17568 36.9592 9.152H28.5474C28.1725 9.17643 27.8031 9.05197 27.5194 8.80565C27.2357 8.55933 27.0607 8.21104 27.0322 7.83641Z" fill="#573001"/>
</g>
</g>
<g clip-path="url(#clip2_47_462)">
<g clip-path="url(#clip3_47_462)">
<g clip-path="url(#clip4_47_462)">
<path fill-rule="evenodd" clip-rule="evenodd" d="M0.00473547 25.9139C0.00167223 25.9472 0.00557923 25.9807 0.016207 26.0124C0.0268347 26.044 0.0439496 26.0732 0.0664588 26.0978C0.0889679 26.1225 0.116377 26.1422 0.146935 26.1557C0.177493 26.1692 0.210528 26.1762 0.243932 26.1762H1.40215C1.43522 26.1751 1.46775 26.1674 1.49781 26.1536C1.52786 26.1397 1.55484 26.12 1.57714 26.0956C1.59944 26.0711 1.61661 26.0424 1.62764 26.0112C1.63866 25.98 1.64333 25.9469 1.64135 25.9139V22.9764H3.21501C3.9593 22.9747 4.67245 22.6775 5.19757 22.15C5.72268 21.6225 6.01675 20.908 6.01508 20.1637C6.01341 19.4195 5.71614 18.7063 5.18866 18.1812C4.66119 17.6561 3.94671 17.362 3.20242 17.3637H0.243932C0.184657 17.3609 0.126611 17.3812 0.0820009 17.4203C0.037391 17.4595 0.00969422 17.5144 0.00473547 17.5735V25.9139ZM1.64135 21.4552V18.8849H3.10171C3.27018 18.8798 3.43796 18.9087 3.59508 18.9697C3.75221 19.0306 3.89549 19.1226 4.01642 19.24C4.13735 19.3574 4.23348 19.4979 4.29909 19.6532C4.36471 19.8084 4.39848 19.9753 4.3984 20.1438C4.40022 20.4896 4.26465 20.822 4.0215 21.0679C3.77835 21.3138 3.44752 21.4531 3.10171 21.4552H1.64135ZM7.29394 26.1762H8.38921C8.46904 26.172 8.54601 26.1451 8.61106 26.0986C8.67611 26.0521 8.72654 25.9881 8.7564 25.9139L9.37328 24.5501H13.138L13.7549 25.9139C13.7821 25.9898 13.8319 26.0556 13.8975 26.1025C13.9631 26.1493 14.0414 26.1751 14.1221 26.1762H15.2173C15.2563 26.1808 15.2958 26.1746 15.3315 26.1583C15.3672 26.142 15.3978 26.1162 15.4198 26.0838C15.4419 26.0513 15.4547 26.0134 15.4567 25.9742C15.4587 25.935 15.45 25.896 15.4314 25.8615L11.5539 17.3637C11.5354 17.3207 11.5057 17.2834 11.468 17.2558C11.4303 17.2281 11.3859 17.211 11.3393 17.2063H11.2134C11.1676 17.2132 11.1242 17.2311 11.0869 17.2585C11.0496 17.2859 11.0196 17.322 10.9994 17.3637L7.08412 25.8615C7.06581 25.8957 7.05714 25.9343 7.05901 25.973C7.06089 26.0118 7.07326 26.0493 7.0948 26.0816C7.11633 26.114 7.14623 26.1398 7.1813 26.1565C7.21637 26.1731 7.2553 26.1799 7.29394 26.1762ZM9.98806 23.1338L11.2218 20.4061H11.2596L12.5185 23.1338H9.98806ZM17.1388 21.7699C17.1363 22.3638 17.2517 22.9522 17.4781 23.5012C17.7045 24.0502 18.0375 24.5489 18.4578 24.9684C18.8781 25.3879 19.3775 25.7199 19.9269 25.9452C20.4764 26.1706 21.065 26.2847 21.6589 26.2811C22.7552 26.2802 23.832 25.9907 24.781 25.4418C24.8169 25.421 24.8458 25.3899 24.8637 25.3524C24.8817 25.315 24.888 25.273 24.8817 25.232V22.0322C24.8798 21.9691 24.8562 21.9086 24.815 21.8608C24.7737 21.8131 24.7173 21.781 24.6551 21.7699H22.238C22.2046 21.7699 22.1715 21.7769 22.141 21.7904C22.1104 21.8039 22.083 21.8236 22.0605 21.8483C22.038 21.873 22.0209 21.9021 22.0103 21.9337C21.9996 21.9654 21.9957 21.9989 21.9988 22.0322V23.0289C22.0037 23.088 22.0314 23.1429 22.076 23.182C22.1207 23.2212 22.1787 23.2415 22.238 23.2387H23.2451V24.3402C22.7718 24.5442 22.2624 24.6512 21.747 24.655C21.3715 24.6517 21.0004 24.5744 20.6548 24.4276C20.3092 24.2808 19.9959 24.0674 19.7328 23.7994C19.4698 23.5315 19.2621 23.2144 19.1217 22.8661C18.9812 22.5179 18.9108 22.1454 18.9144 21.7699C18.8922 21.2137 19.0348 20.6634 19.3244 20.188C19.614 19.7126 20.0376 19.3334 20.542 19.098C21.0465 18.8626 21.6092 18.7815 22.1596 18.8649C22.7099 18.9483 23.2234 19.1925 23.6354 19.5668C23.6551 19.5913 23.68 19.6111 23.7083 19.6247C23.7366 19.6383 23.7676 19.6453 23.7991 19.6453C23.8305 19.6453 23.8615 19.6383 23.8898 19.6247C23.9181 19.6111 23.9431 19.5913 23.9627 19.5668L24.7432 18.7275C24.7661 18.7077 24.7841 18.6829 24.7961 18.6552C24.8081 18.6274 24.8136 18.5973 24.8124 18.5671C24.8112 18.5369 24.8032 18.5074 24.7891 18.4807C24.7749 18.4539 24.755 18.4307 24.7307 18.4128C23.8827 17.6582 22.7937 17.2305 21.6589 17.2063C21.0623 17.2086 20.4719 17.3285 19.9217 17.5592C19.3715 17.7898 18.8722 18.1268 18.4523 18.5507C18.0325 18.9746 17.7004 19.4771 17.475 20.0295C17.2496 20.5819 17.1353 21.1733 17.1388 21.7699ZM27.9908 25.9139C27.9877 25.9472 27.9916 25.9807 28.0022 26.0124C28.0129 26.044 28.03 26.0732 28.0525 26.0978C28.075 26.1225 28.1024 26.1422 28.133 26.1557C28.1635 26.1692 28.1966 26.1762 28.23 26.1762H33.3543C33.3877 26.1762 33.4208 26.1692 33.4513 26.1557C33.4819 26.1422 33.5093 26.1225 33.5318 26.0978C33.5543 26.0732 33.5714 26.044 33.5821 26.0124C33.5927 25.9807 33.5966 25.9472 33.5935 25.9139V24.9173C33.5966 24.884 33.5927 24.8505 33.5821 24.8188C33.5714 24.7871 33.5543 24.758 33.5318 24.7333C33.5093 24.7087 33.4819 24.6889 33.4513 24.6754C33.4208 24.662 33.3877 24.655 33.3543 24.655H29.6274V22.4519H32.7375C32.7705 22.4508 32.8031 22.4431 32.8331 22.4293C32.8632 22.4154 32.8901 22.3957 32.9124 22.3712C32.9347 22.3468 32.9519 22.3181 32.9629 22.2869C32.974 22.2557 32.9786 22.2226 32.9767 22.1896V21.1405C32.9697 21.0822 32.9414 21.0285 32.8972 20.9897C32.8531 20.951 32.7962 20.93 32.7375 20.9306H29.6274V18.8849H33.3543C33.4188 18.8765 33.4782 18.8455 33.5219 18.7975C33.5657 18.7495 33.5911 18.6875 33.5935 18.6226V17.5735C33.5886 17.5144 33.5609 17.4595 33.5163 17.4203C33.4717 17.3812 33.4136 17.3609 33.3543 17.3637H28.23C28.1707 17.3609 28.1126 17.3812 28.068 17.4203C28.0234 17.4595 27.9957 17.5144 27.9908 17.5735V25.9139ZM41.8768 25.9139C41.8748 25.9469 41.8795 25.98 41.8905 26.0112C41.9015 26.0424 41.9187 26.0711 41.941 26.0956C41.9633 26.12 41.9903 26.1397 42.0203 26.1536C42.0504 26.1674 42.0829 26.1751 42.116 26.1762H43.2868C43.3199 26.1751 43.3524 26.1674 43.3824 26.1536C43.4125 26.1397 43.4395 26.12 43.4618 26.0956C43.4841 26.0711 43.5012 26.0424 43.5123 26.0112C43.5233 25.98 43.528 25.9469 43.526 25.9139V18.8849H45.4521C45.5166 18.8765 45.576 18.8455 45.6198 18.7975C45.6635 18.7495 45.6889 18.6875 45.6913 18.6226V17.5735C45.6864 17.5144 45.6587 17.4595 45.6141 17.4203C45.5695 17.3812 45.5114 17.3609 45.4521 17.3637H39.9506C39.8912 17.3607 39.8331 17.381 39.7883 17.4201C39.7436 17.4593 39.7158 17.5143 39.7109 17.5735V18.6226C39.7133 18.6876 39.7388 18.7497 39.7827 18.7977C39.8266 18.8457 39.8861 18.8766 39.9506 18.8849H41.8768V25.9139ZM47.542 21.7699C47.5548 22.9619 48.0373 24.1007 48.8847 24.939C49.7321 25.7774 50.876 26.2476 52.0681 26.2476C53.2601 26.2476 54.404 25.7774 55.2514 24.939C56.0989 24.1007 56.5814 22.9619 56.5942 21.7699C56.6006 21.1715 56.4883 20.5776 56.2638 20.0229C56.0392 19.4681 55.7068 18.9633 55.2859 18.5378C54.865 18.1124 54.3638 17.7746 53.8115 17.5441C53.2592 17.3135 52.6666 17.1948 52.0681 17.1948C51.4696 17.1948 50.877 17.3135 50.3247 17.5441C49.7723 17.7746 49.2712 18.1124 48.8503 18.5378C48.4293 18.9633 48.097 19.4681 47.8724 20.0229C47.6478 20.5776 47.5355 21.1715 47.542 21.7699ZM49.1786 21.7699C49.1776 21.198 49.3464 20.6386 49.6636 20.1627C49.9808 19.6867 50.4321 19.3156 50.9603 19.0963C51.4885 18.877 52.0699 18.8194 52.6309 18.9307C53.1919 19.0421 53.7073 19.3174 54.1117 19.7218C54.5161 20.1263 54.7915 20.6416 54.9028 21.2026C55.0142 21.7636 54.9565 22.345 54.7372 22.8733C54.5179 23.4015 54.1468 23.8528 53.6709 24.1699C53.1949 24.4871 52.6356 24.6559 52.0636 24.655C51.3 24.6504 50.569 24.345 50.0292 23.8049C49.4893 23.2647 49.1843 22.5335 49.1801 21.7699H49.1786ZM59.5013 25.9139C59.4982 25.9472 59.5021 25.9807 59.5128 26.0124C59.5234 26.044 59.5405 26.0732 59.563 26.0978C59.5855 26.1225 59.6129 26.1422 59.6435 26.1557C59.674 26.1692 59.7071 26.1762 59.7405 26.1762H60.8992C60.9323 26.1751 60.9648 26.1674 60.9949 26.1536C61.0249 26.1397 61.0519 26.12 61.0742 26.0956C61.0965 26.0711 61.1137 26.0424 61.1247 26.0112C61.1357 25.98 61.1404 25.9469 61.1384 25.9139V22.9764H62.7121C63.0806 22.9756 63.4454 22.9022 63.7855 22.7604C64.1257 22.6186 64.4346 22.4112 64.6946 22.15C64.9546 21.8888 65.1607 21.579 65.3009 21.2382C65.4412 20.8974 65.513 20.5323 65.5121 20.1637C65.5113 19.7952 65.4379 19.4304 65.2961 19.0903C65.1543 18.7501 64.9469 18.4412 64.6857 18.1812C64.4246 17.9212 64.1147 17.7152 63.7739 17.5749C63.4331 17.4346 63.068 17.3628 62.6995 17.3637H59.7405C59.6812 17.3609 59.6232 17.3812 59.5785 17.4203C59.5339 17.4595 59.5062 17.5144 59.5013 17.5735V25.9139ZM61.1384 21.4552V18.8849H62.5988C62.7672 18.8798 62.935 18.9087 63.0922 18.9697C63.2493 19.0306 63.3926 19.1226 63.5135 19.24C63.6344 19.3574 63.7305 19.4979 63.7962 19.6532C63.8618 19.8084 63.8955 19.9753 63.8955 20.1438C63.8973 20.4896 63.7617 20.822 63.5186 21.0679C63.2754 21.3138 62.9446 21.4531 62.5988 21.4552H61.14H61.1384Z" fill="#573001"/>
</g>
</g>
</g>
<defs>
<clipPath id="clip0_47_462">
<rect width="11.44" height="9.36" fill="white" transform="translate(27.0391)"/>
</clipPath>
<clipPath id="clip1_47_462">
<rect width="11.4399" height="9.15192" fill="white" transform="translate(27.0391)"/>
</clipPath>
<clipPath id="clip2_47_462">
<rect width="65.52" height="9.88" fill="white" transform="translate(0 16.8301)"/>
</clipPath>
<clipPath id="clip3_47_462">
<rect width="65.52" height="9.88" fill="white" transform="translate(0 16.8301)"/>
</clipPath>
<clipPath id="clip4_47_462">
<rect width="65.52" height="9.02234" fill="white" transform="translate(0 17.2588)"/>
</clipPath>
</defs>
</svg>
