<svg width="23" height="23" viewBox="0 0 23 23" fill="none" xmlns="http://www.w3.org/2000/svg">
<path fill-rule="evenodd" clip-rule="evenodd" d="M11.5002 2.07041C14.5708 2.07041 14.9343 2.08422 16.1471 2.13943C16.8762 2.14824 17.5984 2.28207 18.2823 2.53511C18.778 2.72651 19.2282 3.01938 19.604 3.39493C19.9799 3.77049 20.2731 4.22044 20.4649 4.71594C20.7183 5.39961 20.8523 6.12172 20.8611 6.85077C20.9163 8.06541 20.9282 8.42889 20.9282 11.5023C20.9282 14.5757 20.9163 14.9346 20.8611 16.1492C20.8523 16.8783 20.7183 17.6004 20.4649 18.2841C20.2804 18.783 19.9864 19.2342 19.6046 19.6045C19.2348 19.9879 18.7826 20.2821 18.2823 20.4649C17.5984 20.7179 16.8762 20.8518 16.1471 20.8606C14.9347 20.9158 14.5708 20.9296 11.5002 20.9296C8.42964 20.9296 8.06525 20.9158 6.85339 20.8606C6.12426 20.8518 5.40203 20.7179 4.71815 20.4649C4.21783 20.2821 3.76566 19.9879 3.39587 19.6045C3.01403 19.2342 2.72004 18.783 2.53552 18.2841C2.28216 17.6004 2.14817 16.8783 2.13938 16.1492C2.08418 14.9346 2.07221 14.5711 2.07221 11.5023C2.07221 8.43349 2.08418 8.06541 2.13938 6.85077C2.14817 6.12172 2.28216 5.39961 2.53552 4.71594C2.72734 4.22044 3.02058 3.77049 3.39644 3.39493C3.7723 3.01938 4.22249 2.72651 4.71815 2.53511C5.40203 2.28207 6.12426 2.14824 6.85339 2.13943C8.06617 2.08422 8.42964 2.07041 11.5002 2.07041ZM11.5002 0C8.37673 0 7.9852 0.0138028 6.75862 0.0690138C5.80447 0.0870914 4.86037 0.267575 3.96683 0.60272C3.20261 0.897634 2.50857 1.34923 1.92935 1.92847C1.35012 2.5077 0.898536 3.20176 0.603629 3.96599C0.268841 4.86 0.0880732 5.8043 0.0690124 6.75875C0.0128823 7.9826 0 8.37828 0 11.5023C0 14.6263 0.0128823 15.0128 0.0690124 16.2412C0.0880732 17.1957 0.268841 18.14 0.603629 19.034C0.898536 19.7982 1.35012 20.4923 1.92935 21.0715C2.50857 21.6508 3.20261 22.1024 3.96683 22.3973C4.86037 22.7324 5.80447 22.9129 6.75862 22.931C7.9852 22.9862 8.37673 23 11.5002 23C14.6237 23 15.0148 22.9862 16.2414 22.931C17.1955 22.9129 18.1396 22.7324 19.0332 22.3973C19.7974 22.1024 20.4914 21.6508 21.0707 21.0715C21.6499 20.4923 22.1015 19.7982 22.3964 19.034C22.7312 18.14 22.9119 17.1957 22.931 16.2412C22.9871 15.0128 23 14.6217 23 11.5023C23 8.38288 22.9871 7.9826 22.931 6.75875C22.9119 5.8043 22.7312 4.86 22.3964 3.96599C22.1015 3.20176 21.6499 2.5077 21.0707 1.92847C20.4914 1.34923 19.7974 0.897634 19.0332 0.60272C18.1396 0.267575 17.1955 0.0870914 16.2414 0.0690138C15.0148 0.0138028 14.6233 0 11.5002 0ZM11.5002 5.59472C10.3324 5.59472 9.19079 5.941 8.21974 6.58978C7.24869 7.23856 6.49181 8.1607 6.04479 9.23962C5.59778 10.3185 5.4807 11.5058 5.70836 12.6512C5.93603 13.7967 6.49821 14.8489 7.32384 15.6749C8.14946 16.5008 9.20144 17.0634 10.3468 17.2915C11.4921 17.5196 12.6794 17.403 13.7584 16.9564C14.8375 16.5098 15.7599 15.7533 16.4091 14.7825C17.0582 13.8117 17.4049 12.6702 17.4054 11.5023C17.4055 9.93587 16.7835 8.43353 15.6761 7.32569C14.5687 6.21784 13.0666 5.59521 11.5002 5.59472ZM11.5002 15.3349C10.7416 15.3351 9.99998 15.1104 9.36912 14.6891C8.73826 14.2678 8.24653 13.6688 7.95614 12.968C7.66575 12.2671 7.58975 11.4959 7.73774 10.7519C7.88574 10.0078 8.25109 9.32438 8.78757 8.78801C9.32405 8.25165 10.0076 7.88646 10.7516 7.73864C11.4957 7.59082 12.2669 7.66701 12.9676 7.95757C13.6684 8.24814 14.2672 8.74002 14.6884 9.37099C15.1095 10.002 15.3341 10.7437 15.3336 11.5023C15.3334 12.5188 14.9294 13.4937 14.2105 14.2124C13.4917 14.9311 12.5168 15.3349 11.5002 15.3349ZM19.0189 5.36007C19.0189 5.63306 18.938 5.89993 18.7863 6.12691C18.6346 6.3539 18.4191 6.53081 18.1669 6.63528C17.9146 6.73975 17.6371 6.76708 17.3694 6.71383C17.1016 6.66057 16.8557 6.52911 16.6627 6.33607C16.4696 6.14304 16.3382 5.8971 16.2849 5.62935C16.2317 5.3616 16.259 5.08408 16.3635 4.83186C16.4679 4.57965 16.6448 4.36408 16.8718 4.21241C17.0988 4.06075 17.3657 3.9798 17.6387 3.9798C18.0047 3.9798 18.3558 4.12522 18.6146 4.38407C18.8735 4.64292 19.0189 4.994 19.0189 5.36007Z" fill="#573001"/>
</svg>
