<svg width="38" height="39" fill="none" xmlns="http://www.w3.org/2000/svg"><rect x=".25" y=".97" width="37.5" height="37.5" rx="18.75" fill="#fff"/><g clip-path="url(#a)"><g clip-path="url(#b)"><path fill-rule="evenodd" clip-rule="evenodd" d="M17.623 15.977c.153 0 .3.045.438.135l4.242 2.748c.276.179.44.498.44.856 0 .357-.164.677-.44.856l-4.242 2.749a.796.796 0 0 1-.438.134c-.425 0-.882-.378-.882-.99v-5.497c0-.613.457-.991.882-.991Z" fill="#573001"/></g></g><defs><clipPath id="a"><path fill="#fff" transform="translate(16.75 15.97)" d="M0 0h6v7.5H0z"/></clipPath><clipPath id="b"><path fill="#fff" transform="translate(16.75 15.97)" d="M0 0h6v7.5H0z"/></clipPath></defs></svg>