<svg width="38" height="39" fill="none" xmlns="http://www.w3.org/2000/svg"><rect x=".5" y=".97" width="37.5" height="37.5" rx="18.75" fill="#fff"/><g clip-path="url(#a)"><g clip-path="url(#b)"><path fill-rule="evenodd" clip-rule="evenodd" d="M20.627 23.463a.791.791 0 0 1-.438-.135l-4.242-2.748a1.004 1.004 0 0 1-.44-.856c0-.357.164-.677.44-.856l4.242-2.749a.797.797 0 0 1 .438-.134c.425 0 .882.378.882.99v5.497c0 .612-.457.991-.882.991Z" fill="#573001"/></g></g><defs><clipPath id="a"><path fill="#fff" transform="rotate(180 10.75 11.735)" d="M0 0h6v7.5H0z"/></clipPath><clipPath id="b"><path fill="#fff" transform="rotate(180 10.75 11.735)" d="M0 0h6v7.5H0z"/></clipPath></defs></svg>