<svg width="13" height="13" viewBox="0 0 13 13" fill="none" xmlns="http://www.w3.org/2000/svg">
<g clip-path="url(#clip0_770_436)">
<g clip-path="url(#clip1_770_436)">
<path fill-rule="evenodd" clip-rule="evenodd" d="M6.24 12.4805C2.74144 12.4805 0 10.8347 0 8.73548C0 7.25244 1.37072 5.95244 3.57812 5.34248L3.9104 6.54524C2.2932 6.99296 1.248 7.852 1.248 8.73548C1.248 9.9164 3.29784 11.232 6.24 11.232C9.18216 11.232 11.232 9.9164 11.232 8.73548C11.232 7.852 10.1868 6.99296 8.57012 6.54576L8.9024 5.343C11.1093 5.95244 12.48 7.25244 12.48 8.73548C12.48 10.8347 9.73856 12.4805 6.24 12.4805ZM6.864 4.9036V8.11148L6.24 9.36052L5.616 8.11148V4.9036C4.5422 4.62384 3.744 3.65508 3.744 2.49548C3.74469 1.83376 4.0079 1.19934 4.47585 0.731486C4.94381 0.263627 5.57828 0.000550617 6.24 0C7.61644 0 8.736 1.11852 8.736 2.49548C8.736 3.65508 7.9378 4.62384 6.864 4.9036Z" fill="#573001"/>
</g>
</g>
<defs>
<clipPath id="clip0_770_436">
<rect width="12.47" height="12.47" fill="white"/>
</clipPath>
<clipPath id="clip1_770_436">
<rect width="12.48" height="12.48" fill="white"/>
</clipPath>
</defs>
</svg>
