<svg width="13" height="13" fill="none" xmlns="http://www.w3.org/2000/svg"><g clip-path="url(#a)"><g clip-path="url(#b)"><path fill-rule="evenodd" clip-rule="evenodd" d="M6.24 12.48C2.741 12.48 0 10.835 0 8.735c0-1.483 1.37-2.783 3.578-3.393l.332 1.203c-1.617.448-2.662 1.307-2.662 2.19 0 1.181 2.05 2.497 4.992 2.497s4.992-1.316 4.992-2.497c0-.883-1.045-1.742-2.662-2.19l.332-1.202c2.207.61 3.578 1.91 3.578 3.392 0 2.1-2.741 3.745-6.24 3.745Zm.624-7.576V8.11L6.24 9.36l-.624-1.25V4.904a2.495 2.495 0 0 1-1.872-2.409A2.498 2.498 0 0 1 6.24 0a2.498 2.498 0 0 1 2.496 2.495c0 1.16-.798 2.129-1.872 2.409Z" fill="#573001"/></g></g><defs><clipPath id="a"><path fill="#fff" d="M0 0h12.47v12.47H0z"/></clipPath><clipPath id="b"><path fill="#fff" d="M0 0h12.48v12.48H0z"/></clipPath></defs></svg>