<svg width="12" height="10" viewBox="0 0 12 10" fill="none" xmlns="http://www.w3.org/2000/svg">
<path fill-rule="evenodd" clip-rule="evenodd" d="M-0.00686646 7.83641C-0.00232575 7.59308 0.0688997 7.35566 0.199052 7.15002L4.4055 0.686472C4.55189 0.474694 4.74747 0.301595 4.97547 0.182029C5.20346 0.0624631 5.45707 0 5.71451 0C5.97196 0 6.22556 0.0624631 6.45356 0.182029C6.68156 0.301595 6.87714 0.474694 7.02352 0.686472L11.2294 7.15002C11.3597 7.35562 11.4312 7.59303 11.4359 7.83641C11.4066 8.21081 11.2312 8.55865 10.9476 8.80481C10.664 9.05097 10.2949 9.17568 9.92011 9.152H1.50835C1.13344 9.17643 0.764024 9.05197 0.480329 8.80565C0.196634 8.55933 0.0215636 8.21104 -0.00686646 7.83641Z" fill="#573001"/>
</svg>
