<svg width="23" height="23" fill="none" xmlns="http://www.w3.org/2000/svg"><path fill-rule="evenodd" clip-rule="evenodd" d="M11.5 2.07c3.07 0 3.434.014 4.647.07a6.35 6.35 0 0 1 2.135.395 3.813 3.813 0 0 1 2.183 2.18c.253.685.387 1.407.396 2.136.055 1.214.067 1.578.067 4.651 0 3.074-.012 3.433-.067 4.647a6.364 6.364 0 0 1-.396 2.135 3.56 3.56 0 0 1-.86 1.32c-.37.384-.822.678-1.323.86a6.376 6.376 0 0 1-2.135.397c-1.212.055-1.576.069-4.647.069-3.07 0-3.435-.014-4.647-.07a6.376 6.376 0 0 1-2.135-.395 3.511 3.511 0 0 1-1.322-.86 3.56 3.56 0 0 1-.86-1.32 6.365 6.365 0 0 1-.397-2.136c-.055-1.214-.067-1.578-.067-4.647s.012-3.437.067-4.651a6.364 6.364 0 0 1 .397-2.135 3.814 3.814 0 0 1 2.182-2.18 6.375 6.375 0 0 1 2.135-.397C8.066 2.084 8.43 2.07 11.5 2.07Zm0-2.07C8.377 0 7.985.014 6.76.069a8.403 8.403 0 0 0-2.792.534A5.87 5.87 0 0 0 .604 3.966a8.444 8.444 0 0 0-.535 2.793C.013 7.983 0 8.379 0 11.502c0 3.124.013 3.51.069 4.74.02.954.2 1.898.535 2.792a5.87 5.87 0 0 0 3.363 3.363 8.405 8.405 0 0 0 2.792.534c1.226.055 1.618.069 4.741.069 3.124 0 3.515-.014 4.741-.069a8.405 8.405 0 0 0 2.792-.534 5.87 5.87 0 0 0 3.363-3.363 8.445 8.445 0 0 0 .535-2.793c.056-1.228.069-1.62.069-4.739 0-3.12-.013-3.52-.069-4.743a8.445 8.445 0 0 0-.535-2.793A5.87 5.87 0 0 0 19.033.603a8.403 8.403 0 0 0-2.792-.534C15.015.014 14.623 0 11.501 0Zm0 5.595a5.905 5.905 0 1 0 0 11.81 5.905 5.905 0 0 0 0-11.81Zm0 9.74a3.835 3.835 0 1 1-.002-7.67 3.835 3.835 0 0 1 .002 7.67Zm7.52-9.975a1.38 1.38 0 1 1-2.76 0 1.38 1.38 0 0 1 2.76 0Z" fill="#573001"/></svg>