<svg width="12" height="88" fill="none" xmlns="http://www.w3.org/2000/svg"><g clip-path="url(#a)"><g clip-path="url(#b)"><path fill-rule="evenodd" clip-rule="evenodd" d="M-.007 7.836A1.33 1.33 0 0 1 .2 7.15L4.406.686a1.591 1.591 0 0 1 2.618 0l4.205 6.464c.13.206.202.443.207.686A1.43 1.43 0 0 1 9.92 9.152H1.508A1.427 1.427 0 0 1-.007 7.836Z" fill="#573001"/></g></g><g clip-path="url(#c)"><g clip-path="url(#d)"><g clip-path="url(#e)"><path fill-rule="evenodd" clip-rule="evenodd" d="M1.796 22.005a.24.24 0 0 0-.262.239v1.158a.247.247 0 0 0 .262.24h2.938v1.573a2.806 2.806 0 0 0 5.612-.013v-2.958a.23.23 0 0 0-.21-.24h-8.34Zm4.459 1.636h2.57v1.46a1.259 1.259 0 0 1-1.259 1.297 1.304 1.304 0 0 1-1.311-1.296v-1.46Zm-4.721 5.653v1.095a.42.42 0 0 0 .262.367l1.364.617v3.765l-1.364.617a.396.396 0 0 0-.262.367v1.095a.215.215 0 0 0 .314.214l8.498-3.877a.263.263 0 0 0 .158-.215v-.126a.284.284 0 0 0-.158-.214l-8.498-3.915a.214.214 0 0 0-.314.21Zm3.042 2.694 2.728 1.234v.038l-2.728 1.258v-2.53Zm1.364 7.15a4.494 4.494 0 0 0-4.511 4.52c0 1.097.29 2.174.84 3.123a.207.207 0 0 0 .209.1h3.2a.275.275 0 0 0 .262-.226v-2.417a.24.24 0 0 0-.262-.24H4.68a.23.23 0 0 0-.21.24v1.007h-1.1a3.859 3.859 0 0 1-.315-1.498 2.858 2.858 0 0 1 2.885-2.833 2.824 2.824 0 0 1 2.203 4.721.21.21 0 0 0 0 .328l.84.78a.202.202 0 0 0 .314-.012 4.773 4.773 0 0 0 1.207-3.072 4.536 4.536 0 0 0-4.564-4.52ZM1.796 49.992a.24.24 0 0 0-.262.239v5.124a.24.24 0 0 0 .262.24h.997a.242.242 0 0 0 .241-.143.24.24 0 0 0 .021-.097v-3.727h2.203v3.11a.248.248 0 0 0 .262.24h1.05a.238.238 0 0 0 .21-.24v-3.11h2.045v3.727a.275.275 0 0 0 .262.24h1.05a.23.23 0 0 0 .21-.24V50.23a.23.23 0 0 0-.21-.24H1.795Zm0 13.886a.248.248 0 0 0-.262.239v1.17a.248.248 0 0 0 .262.24h7.029v1.926a.275.275 0 0 0 .262.24h1.05a.23.23 0 0 0 .21-.24v-5.501a.23.23 0 0 0-.21-.24h-1.05a.275.275 0 0 0-.262.24v1.926H1.796Zm4.144 5.665a4.526 4.526 0 1 0 .097 9.051 4.526 4.526 0 0 0-.097-9.051Zm0 1.636a2.89 2.89 0 1 1-2.885 2.886A2.9 2.9 0 0 1 5.94 71.18v-.002ZM1.796 81.501a.242.242 0 0 0-.242.142.24.24 0 0 0-.02.097v1.16a.247.247 0 0 0 .262.238h2.938v1.574a2.807 2.807 0 0 0 5.612-.013V81.74a.23.23 0 0 0-.21-.239h-8.34Zm4.459 1.637h2.57v1.46a1.259 1.259 0 0 1-1.259 1.297A1.304 1.304 0 0 1 6.255 84.6v-1.46Z" fill="#573001"/></g></g></g><defs><clipPath id="a"><path fill="#fff" d="M0 0h11.44v9.36H0z"/></clipPath><clipPath id="b"><path fill="#fff" d="M0 0h11.44v9.152H0z"/></clipPath><clipPath id="c"><path transform="rotate(90 10.7 22.01)" fill="#fff" d="M10.7 22.01h65.52v9.88H10.7z"/></clipPath><clipPath id="d"><path fill="#fff" transform="rotate(90 -5.56 16.44)" d="M0 0h65.52v9.88H0z"/></clipPath><clipPath id="e"><path fill="#fff" transform="rotate(90 -5.774 16.226)" d="M0 0h65.52v9.022H0z"/></clipPath></defs></svg>