<svg width="66" height="27" fill="none" xmlns="http://www.w3.org/2000/svg"><g clip-path="url(#a)"><g clip-path="url(#b)"><path fill-rule="evenodd" clip-rule="evenodd" d="M27.032 7.836a1.33 1.33 0 0 1 .206-.686L31.445.686a1.591 1.591 0 0 1 2.618 0l4.206 6.464c.13.206.201.443.206.686a1.43 1.43 0 0 1-1.516 1.316h-8.412a1.427 1.427 0 0 1-1.515-1.316Z" fill="#573001"/></g></g><g clip-path="url(#c)"><g clip-path="url(#d)"><g clip-path="url(#e)"><path fill-rule="evenodd" clip-rule="evenodd" d="M.005 25.914a.24.24 0 0 0 .239.262h1.158a.25.25 0 0 0 .226-.165.248.248 0 0 0 .013-.097v-2.938h1.574a2.806 2.806 0 1 0-.013-5.612H.244a.23.23 0 0 0-.24.21v8.34Zm1.636-4.459v-2.57h1.46a1.258 1.258 0 0 1 1.297 1.259 1.305 1.305 0 0 1-1.296 1.311h-1.46Zm5.653 4.721h1.095a.42.42 0 0 0 .367-.262l.617-1.364h3.765l.617 1.364a.396.396 0 0 0 .367.262h1.095a.214.214 0 0 0 .214-.314l-3.877-8.498a.262.262 0 0 0-.215-.158h-.126a.285.285 0 0 0-.214.158L7.084 25.86a.214.214 0 0 0 .21.315Zm2.694-3.042 1.234-2.728h.038l1.258 2.728h-2.53Zm7.15-1.364a4.492 4.492 0 0 0 4.52 4.511c1.097 0 2.174-.29 3.123-.84a.206.206 0 0 0 .083-.089c.018-.037.024-.079.018-.12v-3.2a.275.275 0 0 0-.227-.262h-2.417a.24.24 0 0 0-.24.262v.997a.229.229 0 0 0 .24.21h1.007v1.101a3.857 3.857 0 0 1-1.498.315 2.858 2.858 0 0 1-2.833-2.885 2.824 2.824 0 0 1 4.721-2.203.21.21 0 0 0 .328 0l.78-.84a.201.201 0 0 0-.012-.314 4.774 4.774 0 0 0-3.072-1.207 4.538 4.538 0 0 0-4.52 4.564Zm10.853 4.144a.24.24 0 0 0 .239.262h5.124a.24.24 0 0 0 .24-.262v-.997a.24.24 0 0 0-.24-.262h-3.727v-2.203h3.11a.249.249 0 0 0 .24-.262v-1.05a.239.239 0 0 0-.24-.21h-3.11v-2.045h3.727a.275.275 0 0 0 .24-.262v-1.05a.23.23 0 0 0-.24-.21H28.23a.23.23 0 0 0-.24.21v8.34Zm13.886 0a.248.248 0 0 0 .239.262h1.17a.249.249 0 0 0 .24-.262v-7.03h1.926a.275.275 0 0 0 .24-.261v-1.05a.23.23 0 0 0-.24-.21h-5.501a.23.23 0 0 0-.24.21v1.05a.275.275 0 0 0 .24.262h1.926v7.029Zm5.665-4.144a4.526 4.526 0 1 0 9.052-.097 4.526 4.526 0 0 0-9.052.097Zm1.637 0a2.889 2.889 0 1 1 2.885 2.885 2.9 2.9 0 0 1-2.884-2.885h-.001ZM59.5 25.914a.239.239 0 0 0 .143.242.24.24 0 0 0 .096.02h1.16a.25.25 0 0 0 .225-.165.248.248 0 0 0 .013-.097v-2.938h1.574a2.805 2.805 0 1 0-.013-5.612H59.74a.23.23 0 0 0-.239.21v8.34Zm1.637-4.459v-2.57h1.46a1.259 1.259 0 0 1 1.297 1.259 1.305 1.305 0 0 1-1.296 1.311h-1.461Z" fill="#573001"/></g></g></g><defs><clipPath id="a"><path fill="#fff" transform="translate(27.04)" d="M0 0h11.44v9.36H0z"/></clipPath><clipPath id="b"><path fill="#fff" transform="translate(27.04)" d="M0 0h11.44v9.152H0z"/></clipPath><clipPath id="c"><path fill="#fff" transform="translate(0 16.83)" d="M0 0h65.52v9.88H0z"/></clipPath><clipPath id="d"><path fill="#fff" transform="translate(0 16.83)" d="M0 0h65.52v9.88H0z"/></clipPath><clipPath id="e"><path fill="#fff" transform="translate(0 17.259)" d="M0 0h65.52v9.022H0z"/></clipPath></defs></svg>