<svg width="12" height="88" viewBox="0 0 12 88" fill="none" xmlns="http://www.w3.org/2000/svg">
<g clip-path="url(#clip0_770_344)">
<g clip-path="url(#clip1_770_344)">
<path fill-rule="evenodd" clip-rule="evenodd" d="M-0.00686646 7.83641C-0.00232575 7.59308 0.0688997 7.35566 0.199052 7.15002L4.4055 0.686472C4.55189 0.474694 4.74747 0.301595 4.97547 0.182029C5.20346 0.0624631 5.45707 0 5.71451 0C5.97196 0 6.22556 0.0624631 6.45356 0.182029C6.68156 0.301595 6.87714 0.474694 7.02352 0.686472L11.2294 7.15002C11.3597 7.35562 11.4312 7.59303 11.4359 7.83641C11.4066 8.21081 11.2312 8.55865 10.9476 8.80481C10.664 9.05097 10.2949 9.17568 9.92011 9.152H1.50835C1.13344 9.17643 0.764024 9.05197 0.480329 8.80565C0.196634 8.55933 0.0215636 8.21104 -0.00686646 7.83641Z" fill="#573001"/>
</g>
</g>
<g clip-path="url(#clip2_770_344)">
<g clip-path="url(#clip3_770_344)">
<g clip-path="url(#clip4_770_344)">
<path fill-rule="evenodd" clip-rule="evenodd" d="M1.79602 22.0047C1.76276 22.0016 1.72922 22.0055 1.69755 22.0161C1.66588 22.0268 1.63678 22.0439 1.6121 22.0664C1.58742 22.0889 1.5677 22.1163 1.55421 22.1469C1.54072 22.1774 1.53375 22.2105 1.53374 22.2439V23.4021C1.5348 23.4352 1.54249 23.4677 1.55633 23.4977C1.57018 23.5278 1.58991 23.5548 1.61437 23.5771C1.63882 23.5994 1.66749 23.6165 1.69869 23.6276C1.72989 23.6386 1.76299 23.6433 1.79602 23.6413H4.73352V25.2149C4.73519 25.9592 5.03246 26.6724 5.55994 27.1975C6.08742 27.7226 6.80189 28.0167 7.54618 28.015C8.29048 28.0134 9.00363 27.7161 9.52874 27.1886C10.0539 26.6611 10.3479 25.9467 10.3463 25.2024V22.2439C10.349 22.1846 10.3287 22.1265 10.2896 22.0819C10.2505 22.0373 10.1956 22.0096 10.1364 22.0047H1.79602ZM6.25473 23.6413H8.82505V25.1016C8.83011 25.2701 8.80128 25.4379 8.74028 25.595C8.67928 25.7521 8.58735 25.8954 8.46994 26.0164C8.35253 26.1373 8.21203 26.2334 8.05678 26.299C7.90152 26.3646 7.73467 26.3984 7.56612 26.3983C7.2203 26.4002 6.88792 26.2646 6.64202 26.0214C6.39611 25.7783 6.25681 25.4475 6.25473 25.1016V23.6413ZM1.53374 29.2939V30.3892C1.53794 30.469 1.56486 30.5459 1.61133 30.611C1.65779 30.676 1.72187 30.7265 1.79602 30.7563L3.15986 31.3732V35.1379L1.79602 35.7548C1.72012 35.782 1.65434 35.8318 1.60747 35.8974C1.5606 35.963 1.53488 36.0414 1.53374 36.122L1.53374 37.2173C1.52915 37.2563 1.53534 37.2958 1.55164 37.3315C1.56794 37.3672 1.59372 37.3977 1.62617 37.4198C1.65863 37.4419 1.69652 37.4546 1.73571 37.4566C1.77491 37.4587 1.81391 37.4499 1.84847 37.4313L10.3463 33.5538C10.3892 33.5353 10.4265 33.5057 10.4542 33.468C10.4818 33.4302 10.4989 33.3858 10.5036 33.3392V33.2134C10.4968 33.1676 10.4788 33.1242 10.4514 33.0869C10.424 33.0496 10.3879 33.0195 10.3463 32.9993L1.84847 29.0841C1.81424 29.0658 1.77568 29.0571 1.7369 29.059C1.69812 29.0608 1.66058 29.0732 1.62828 29.0947C1.59598 29.1163 1.57013 29.1462 1.55348 29.1812C1.53683 29.2163 1.53001 29.2552 1.53374 29.2939ZM4.57616 31.988L7.30384 33.2217V33.2595L4.57616 34.5184V31.988ZM5.94 39.1387C5.34615 39.1363 4.75771 39.2516 4.20871 39.478C3.6597 39.7044 3.16103 40.0374 2.74153 40.4577C2.32202 40.8781 1.99001 41.3774 1.76469 41.9268C1.53937 42.4763 1.42522 43.065 1.42883 43.6588C1.42975 44.7551 1.71921 45.8319 2.26812 46.781C2.28893 46.8169 2.32008 46.8457 2.3575 46.8637C2.39493 46.8816 2.4369 46.8879 2.47794 46.8817H5.67772C5.74081 46.8798 5.80132 46.8562 5.84908 46.8149C5.89684 46.7737 5.92895 46.7172 5.94 46.6551V44.2379C5.93999 44.2045 5.93302 44.1715 5.91953 44.1409C5.90604 44.1104 5.88632 44.083 5.86164 44.0604C5.83696 44.0379 5.80786 44.0208 5.77619 44.0102C5.74452 43.9996 5.71098 43.9957 5.67772 43.9987H4.68107C4.62194 44.0037 4.56703 44.0314 4.5279 44.076C4.48877 44.1206 4.46846 44.1786 4.47125 44.2379V45.2451H3.36968C3.16576 44.7717 3.05874 44.2623 3.05495 43.7469C3.05824 43.3715 3.13549 43.0003 3.28229 42.6547C3.42909 42.3091 3.64255 41.9958 3.91049 41.7328C4.17842 41.4697 4.49556 41.262 4.8438 41.1216C5.19204 40.9812 5.56453 40.9107 5.94 40.9143C6.4962 40.8921 7.04657 41.0348 7.52197 41.3244C7.99736 41.6139 8.37658 42.0375 8.61197 42.542C8.84737 43.0464 8.92846 43.6091 8.84504 44.1595C8.76163 44.7099 8.51743 45.2233 8.14313 45.6353C8.11862 45.655 8.09884 45.6799 8.08525 45.7082C8.07166 45.7366 8.06461 45.7676 8.06461 45.799C8.06461 45.8304 8.07166 45.8614 8.08525 45.8898C8.09884 45.9181 8.11862 45.943 8.14313 45.9627L8.98242 46.7432C9.00227 46.766 9.02698 46.784 9.05474 46.796C9.0825 46.808 9.11259 46.8136 9.1428 46.8124C9.17301 46.8112 9.20256 46.8032 9.22927 46.789C9.25599 46.7749 9.27918 46.7549 9.29715 46.7306C10.0517 45.8827 10.4795 44.7936 10.5036 43.6588C10.5014 43.0622 10.3815 42.4719 10.1508 41.9217C9.92009 41.3714 9.58316 40.8721 9.15927 40.4523C8.73538 40.0324 8.23285 39.7003 7.68044 39.4749C7.12804 39.2495 6.53661 39.1353 5.94 39.1387ZM1.79602 49.9907C1.76276 49.9876 1.72922 49.9916 1.69755 50.0022C1.66588 50.0128 1.63678 50.0299 1.6121 50.0524C1.58742 50.0749 1.5677 50.1023 1.55421 50.1329C1.54072 50.1635 1.53375 50.1965 1.53374 50.2299V55.3543C1.53375 55.3877 1.54072 55.4207 1.55421 55.4513C1.5677 55.4818 1.58742 55.5092 1.6121 55.5317C1.63678 55.5543 1.66588 55.5714 1.69755 55.582C1.72922 55.5926 1.76276 55.5965 1.79602 55.5935H2.79267C2.82593 55.5965 2.85947 55.5926 2.89114 55.582C2.92281 55.5714 2.95191 55.5543 2.97659 55.5317C3.00127 55.5092 3.02099 55.4818 3.03448 55.4513C3.04797 55.4207 3.05494 55.3877 3.05495 55.3543V51.6273H5.25808V54.7374C5.25914 54.7705 5.26682 54.803 5.28067 54.8331C5.29452 54.8631 5.31425 54.8901 5.3387 54.9124C5.36315 54.9347 5.39183 54.9519 5.42303 54.9629C5.45423 54.9739 5.48732 54.9786 5.52036 54.9766H6.56946C6.62778 54.9696 6.68146 54.9413 6.72018 54.8972C6.75891 54.853 6.77996 54.7961 6.77929 54.7374V51.6273H8.82505V55.3543C8.83344 55.4187 8.86438 55.4781 8.9124 55.5219C8.96041 55.5657 9.02239 55.591 9.08733 55.5935H10.1364C10.1956 55.5885 10.2505 55.5608 10.2896 55.5162C10.3287 55.4716 10.349 55.4136 10.3463 55.3543V50.2299C10.349 50.1706 10.3287 50.1126 10.2896 50.068C10.2505 50.0234 10.1956 49.9957 10.1364 49.9907H1.79602ZM1.79602 63.8767C1.76299 63.8747 1.72989 63.8794 1.69869 63.8904C1.66749 63.9015 1.63882 63.9186 1.61437 63.9409C1.58991 63.9632 1.57018 63.9902 1.55633 64.0203C1.54249 64.0503 1.5348 64.0828 1.53374 64.1159V65.2867C1.5348 65.3198 1.54249 65.3523 1.55633 65.3824C1.57018 65.4124 1.58991 65.4394 1.61437 65.4617C1.63882 65.484 1.66749 65.5012 1.69869 65.5122C1.72989 65.5232 1.76299 65.5279 1.79602 65.5259H8.82505V67.4521C8.83344 67.5165 8.86438 67.5759 8.9124 67.6197C8.96041 67.6635 9.02239 67.6888 9.08733 67.6913H10.1364C10.1956 67.6863 10.2505 67.6586 10.2896 67.614C10.3287 67.5694 10.349 67.5113 10.3463 67.4521L10.3463 61.9506C10.3492 61.8912 10.3289 61.833 10.2898 61.7883C10.2506 61.7436 10.1957 61.7158 10.1364 61.7108H9.08733C9.02231 61.7133 8.96027 61.7387 8.91224 61.7826C8.86422 61.8265 8.83332 61.886 8.82505 61.9506L8.82505 63.8767H1.79602ZM5.94 69.5419C4.74804 69.5547 3.60925 70.0372 2.77091 70.8847C1.93257 71.7321 1.46235 72.876 1.46235 74.068C1.46235 75.26 1.93257 76.404 2.77091 77.2514C3.60925 78.0988 4.74804 78.5813 5.94 78.5941C6.53848 78.6006 7.13229 78.4883 7.68708 78.2637C8.24186 78.0391 8.7466 77.7068 9.17209 77.2858C9.59757 76.8649 9.93535 76.3638 10.1659 75.8114C10.3964 75.2591 10.5151 74.6665 10.5151 74.068C10.5151 73.4695 10.3964 72.8769 10.1659 72.3246C9.93535 71.7723 9.59757 71.2711 9.17209 70.8502C8.7466 70.4293 8.24186 70.0969 7.68708 69.8723C7.13229 69.6478 6.53848 69.5355 5.94 69.5419ZM5.94 71.1785C6.51194 71.1776 7.0713 71.3464 7.54724 71.6636C8.02319 71.9807 8.39431 72.432 8.61361 72.9602C8.83292 73.4885 8.89054 74.0699 8.77919 74.6309C8.66784 75.1919 8.39252 75.7072 7.98809 76.1117C7.58367 76.5161 7.06833 76.7914 6.50733 76.9027C5.94633 77.0141 5.3649 76.9565 4.83667 76.7372C4.30844 76.5179 3.85717 76.1467 3.54 75.6708C3.22282 75.1949 3.05402 74.6355 3.05495 74.0636C3.05949 73.2999 3.36496 72.5689 3.90508 72.0291C4.44519 71.4893 5.17638 71.1842 5.94 71.1801V71.1785ZM1.79602 81.5012C1.76276 81.4982 1.72922 81.5021 1.69755 81.5127C1.66588 81.5233 1.63678 81.5404 1.6121 81.5629C1.58742 81.5854 1.5677 81.6129 1.55421 81.6434C1.54072 81.674 1.53375 81.707 1.53374 81.7404V82.8992C1.5348 82.9322 1.54249 82.9648 1.55633 82.9948C1.57018 83.0249 1.58991 83.0518 1.61437 83.0741C1.63882 83.0964 1.66749 83.1136 1.69869 83.1246C1.72989 83.1357 1.76299 83.1403 1.79602 83.1384H4.73352V84.712C4.73435 85.0806 4.80776 85.4453 4.94955 85.7855C5.09135 86.1257 5.29876 86.4346 5.55994 86.6946C5.82112 86.9546 6.13096 87.1606 6.47176 87.3009C6.81256 87.4411 7.17765 87.5129 7.54618 87.5121C7.91472 87.5113 8.27949 87.4379 8.61966 87.2961C8.95982 87.1543 9.26873 86.9469 9.52874 86.6857C9.78875 86.4245 9.99477 86.1147 10.135 85.7739C10.2753 85.4331 10.3471 85.068 10.3463 84.6994V81.7404C10.349 81.6811 10.3287 81.6231 10.2896 81.5785C10.2505 81.5339 10.1956 81.5062 10.1364 81.5012H1.79602ZM6.25473 83.1384H8.82505V84.5987C8.83011 84.7672 8.80128 84.935 8.74028 85.0921C8.67928 85.2492 8.58735 85.3925 8.46994 85.5134C8.35253 85.6344 8.21203 85.7305 8.05678 85.7961C7.90152 85.8617 7.73467 85.8955 7.56612 85.8954C7.2203 85.8972 6.88792 85.7617 6.64202 85.5185C6.39611 85.2754 6.25681 84.9445 6.25473 84.5987V83.1399V83.1384Z" fill="#573001"/>
</g>
</g>
</g>
<defs>
<clipPath id="clip0_770_344">
<rect width="11.44" height="9.36" fill="white"/>
</clipPath>
<clipPath id="clip1_770_344">
<rect width="11.4399" height="9.15192" fill="white"/>
</clipPath>
<clipPath id="clip2_770_344">
<rect x="10.7002" y="22.0103" width="65.52" height="9.88" transform="rotate(90 10.7002 22.0103)" fill="white"/>
</clipPath>
<clipPath id="clip3_770_344">
<rect width="65.52" height="9.88" fill="white" transform="matrix(0 1 -1 0 10.88 22)"/>
</clipPath>
<clipPath id="clip4_770_344">
<rect width="65.52" height="9.02234" fill="white" transform="matrix(0 1 -1 0 10.4512 22)"/>
</clipPath>
</defs>
</svg>
