<svg width="42" height="12" viewBox="0 0 42 12" fill="none" xmlns="http://www.w3.org/2000/svg">
<g clip-path="url(#clip0_770_604)">
<g clip-path="url(#clip1_770_604)">
<g clip-path="url(#clip2_770_604)">
<g clip-path="url(#clip3_770_604)">
<path fill-rule="evenodd" clip-rule="evenodd" d="M4.57202 10.6035C4.56396 10.6336 4.56321 10.6652 4.56984 10.6956C4.57647 10.7261 4.59028 10.7545 4.61012 10.7785C4.62996 10.8025 4.65525 10.8214 4.68389 10.8336C4.71252 10.8459 4.74367 10.8511 4.77473 10.8488H5.73241C5.77749 10.8469 5.82071 10.8303 5.85541 10.8015C5.89011 10.7726 5.91438 10.7332 5.92448 10.6892L6.54219 6.6531H6.57411L8.45916 10.8382C8.47403 10.8736 8.49925 10.9038 8.53153 10.9246C8.5638 10.9455 8.60162 10.9562 8.64005 10.9552H8.83212C8.87084 10.9577 8.90933 10.9477 8.9419 10.9266C8.97447 10.9055 8.9994 10.8745 9.01302 10.8382L10.8752 6.6531H10.9071L11.5355 10.6892C11.5496 10.7329 11.5765 10.7714 11.6126 10.7998C11.6487 10.8282 11.6924 10.8453 11.7382 10.8488H12.7076C12.7384 10.8516 12.7694 10.8466 12.7978 10.8343C12.8262 10.822 12.8511 10.8028 12.8702 10.7784C12.8892 10.754 12.9018 10.7252 12.9069 10.6947C12.912 10.6641 12.9093 10.6328 12.8991 10.6035L11.6424 3.44751C11.6373 3.40121 11.6144 3.3587 11.5786 3.32893C11.5428 3.29915 11.4968 3.28444 11.4503 3.2879H11.2801C11.2427 3.28501 11.2053 3.29367 11.1729 3.3127C11.1406 3.33172 11.1148 3.3602 11.0992 3.3943L8.75817 8.42056H8.72625L6.38524 3.3943C6.3683 3.3611 6.34222 3.33344 6.31007 3.31458C6.27792 3.29573 6.24105 3.28647 6.20381 3.2879H6.03355C5.98716 3.28445 5.94124 3.29918 5.9055 3.32896C5.86976 3.35874 5.847 3.40125 5.84202 3.44751L4.57202 10.6035ZM15.4173 10.6461C15.4172 10.6727 15.4224 10.6991 15.4325 10.7236C15.4426 10.7482 15.4575 10.7706 15.4763 10.7894C15.4951 10.8082 15.5174 10.8232 15.542 10.8334C15.5665 10.8436 15.5929 10.8488 15.6195 10.8488H19.9546C19.9812 10.8488 20.0075 10.8436 20.0321 10.8334C20.0566 10.8232 20.0789 10.8082 20.0977 10.7894C20.1165 10.7706 20.1314 10.7482 20.1415 10.7236C20.1516 10.6991 20.1568 10.6727 20.1568 10.6461V9.77302C20.1568 9.7194 20.1355 9.66798 20.0975 9.63006C20.0596 9.59215 20.0082 9.57085 19.9546 9.57085H16.8017V7.70868H19.4326C19.4863 7.70868 19.5377 7.68738 19.5756 7.64946C19.6135 7.61155 19.6348 7.56012 19.6348 7.5065V6.62277C19.6331 6.56964 19.6113 6.51916 19.5737 6.48152C19.5362 6.44389 19.4858 6.42192 19.4326 6.42006H16.8017V4.67388H19.9546C19.9812 4.67388 20.0075 4.66863 20.0321 4.65844C20.0566 4.64824 20.0789 4.6333 20.0977 4.61447C20.1165 4.59564 20.1314 4.57329 20.1415 4.5487C20.1516 4.52411 20.1568 4.49776 20.1568 4.47117V3.59861C20.1568 3.54499 20.1355 3.49357 20.0975 3.45565C20.0596 3.41773 20.0082 3.39643 19.9546 3.39643H15.6195C15.5658 3.39643 15.5144 3.41773 15.4765 3.45565C15.4386 3.49357 15.4173 3.54499 15.4173 3.59861V10.6482V10.6461ZM22.7393 10.6461C22.741 10.6992 22.7629 10.7497 22.8004 10.7874C22.8379 10.825 22.8884 10.847 22.9415 10.8488H23.9109C23.9375 10.8488 23.9638 10.8436 23.9884 10.8334C24.0129 10.8232 24.0353 10.8082 24.054 10.7894C24.0728 10.7706 24.0877 10.7482 24.0978 10.7236C24.108 10.6991 24.1131 10.6727 24.1131 10.6461V6.06731H24.1237L28.5759 10.9552H28.8313C28.8833 10.9558 28.9335 10.9362 28.9713 10.9005C29.0092 10.8647 29.0316 10.8157 29.034 10.7637V3.59861C29.0321 3.54549 29.0101 3.49506 28.9725 3.45753C28.9349 3.41999 28.8844 3.39815 28.8313 3.39643H27.8539C27.8273 3.39636 27.8009 3.40154 27.7764 3.41167C27.7518 3.4218 27.7294 3.43668 27.7106 3.45546C27.6917 3.47424 27.6768 3.49655 27.6666 3.52112C27.6564 3.54568 27.6512 3.57202 27.6512 3.59861V7.99705H27.6411L23.2107 3.29002H22.9447C22.8927 3.28942 22.8425 3.30908 22.8048 3.34483C22.7671 3.38059 22.7447 3.42962 22.7425 3.48156V10.6482L22.7393 10.6461ZM31.9235 8.02684C31.9235 8.81352 32.236 9.56797 32.7923 10.1242C33.3486 10.6805 34.103 10.993 34.8897 10.993C35.6764 10.993 36.4308 10.6805 36.9871 10.1242C37.5433 9.56797 37.8559 8.81352 37.8559 8.02684V3.59861C37.8541 3.54554 37.8323 3.49511 37.7947 3.45756C37.7572 3.42002 37.7067 3.39816 37.6537 3.39643H36.6428C36.6162 3.39643 36.5899 3.40166 36.5654 3.41182C36.5409 3.42198 36.5186 3.43688 36.4998 3.45565C36.481 3.47442 36.4662 3.49671 36.456 3.52124C36.4458 3.54577 36.4406 3.57206 36.4406 3.59861V7.9614C36.4476 8.16977 36.4125 8.3774 36.3374 8.57189C36.2623 8.76639 36.1487 8.94374 36.0036 9.09336C35.8584 9.24297 35.6845 9.36178 35.4923 9.44268C35.3002 9.52357 35.0937 9.5649 34.8852 9.56418C34.6767 9.56347 34.4705 9.52073 34.279 9.43851C34.0874 9.3563 33.9143 9.2363 33.7702 9.08569C33.626 8.93508 33.5137 8.75695 33.4399 8.56195C33.3662 8.36695 33.3325 8.15908 33.3409 7.95076V3.59861C33.3409 3.54499 33.3196 3.49357 33.2817 3.45565C33.2438 3.41773 33.1923 3.39643 33.1387 3.39643H32.1278C32.0748 3.39816 32.0243 3.42002 31.9868 3.45756C31.9492 3.49511 31.9274 3.54554 31.9256 3.59861V8.02897L31.9235 8.02684Z" fill="#40332A"/>
</g>
</g>
</g>
</g>
<defs>
<clipPath id="clip0_770_604">
<rect width="41.59" height="10.39" fill="white" transform="translate(0.420044 0.949951)"/>
</clipPath>
<clipPath id="clip1_770_604">
<rect width="33.27" height="8.31" fill="white" transform="translate(4.58002 2.96997)"/>
</clipPath>
<clipPath id="clip2_770_604">
<rect width="33.27" height="8.31" fill="white" transform="translate(4.58002 2.96997)"/>
</clipPath>
<clipPath id="clip3_770_604">
<rect width="33.27" height="7.66468" fill="white" transform="translate(4.58002 3.29272)"/>
</clipPath>
</defs>
</svg>
