<svg width="80" height="17" viewBox="0 0 80 17" fill="none" xmlns="http://www.w3.org/2000/svg">
<g clip-path="url(#clip0_770_469)">
<g clip-path="url(#clip1_770_469)">
<g clip-path="url(#clip2_770_469)">
<path fill-rule="evenodd" clip-rule="evenodd" d="M0.201907 4.58634C0.204495 5.33137 0.427873 6.05891 0.843812 6.67703C1.25975 7.29515 1.84958 7.7761 2.53877 8.05911C3.22796 8.34212 3.98558 8.41448 4.71588 8.26705C5.44618 8.11963 6.11639 7.75903 6.64182 7.23082C7.16725 6.70261 7.52431 6.03051 7.66789 5.29944C7.81146 4.56837 7.73511 3.81115 7.44847 3.12346C7.16183 2.43577 6.67777 1.84848 6.05747 1.43581C5.43717 1.02314 4.70845 0.803599 3.96342 0.804939C3.46691 0.801848 2.97476 0.897693 2.51569 1.08688C2.05662 1.27607 1.63984 1.55481 1.28968 1.90682C0.93951 2.25884 0.662973 2.67709 0.47621 3.13714C0.289446 3.5972 0.196198 4.08985 0.201907 4.58634ZM1.56269 4.58634C1.56165 4.11035 1.70192 3.64477 1.96572 3.24856C2.22952 2.85236 2.60498 2.54337 3.04454 2.36074C3.4841 2.17811 3.96798 2.13006 4.43487 2.22266C4.90177 2.31527 5.33067 2.54437 5.66724 2.88095C6.00382 3.21752 6.23292 3.64643 6.32553 4.11332C6.41814 4.58022 6.37008 5.06409 6.18745 5.50365C6.00482 5.94321 5.69583 6.31867 5.29963 6.58247C4.90343 6.84627 4.43784 6.98654 3.96185 6.9855C3.32777 6.97882 2.72157 6.72386 2.27333 6.27533C1.82509 5.82679 1.57052 5.22043 1.56426 4.58634H1.56269ZM10.1461 8.04325C10.146 8.06941 10.1511 8.09533 10.1611 8.11952C10.171 8.14371 10.1857 8.1657 10.2041 8.18422C10.2226 8.20274 10.2446 8.21744 10.2687 8.22747C10.2929 8.23749 10.3188 8.24266 10.345 8.24266H11.309C11.3613 8.24083 11.4109 8.21921 11.4478 8.18219C11.4847 8.14517 11.5062 8.09551 11.5079 8.04325V5.39339H14.096C14.1483 5.39156 14.1979 5.36995 14.2348 5.33293C14.2717 5.29591 14.2932 5.24624 14.2949 5.19398V4.33512C14.2932 4.28291 14.2717 4.23331 14.2348 4.19637C14.1978 4.15944 14.1482 4.13794 14.096 4.13624H11.5079V2.16677H14.6089C14.6351 2.16684 14.6611 2.16173 14.6853 2.15173C14.7095 2.14173 14.7315 2.12705 14.7501 2.10852C14.7686 2.08999 14.7833 2.06798 14.7933 2.04375C14.8033 2.01953 14.8084 1.99357 14.8083 1.96736V1.11059C14.8083 1.08443 14.8032 1.05853 14.7931 1.03436C14.7831 1.0102 14.7684 0.98825 14.7499 0.969775C14.7314 0.9513 14.7094 0.936661 14.6852 0.926697C14.661 0.916733 14.6351 0.91164 14.6089 0.911708H10.345C10.2922 0.911708 10.2416 0.932662 10.2043 0.96996C10.167 1.00726 10.1461 1.05784 10.1461 1.11059V8.04534V8.04325ZM17.0971 8.04325C17.0971 8.09614 17.1181 8.14686 17.1555 8.18425C17.1929 8.22165 17.2436 8.24266 17.2965 8.24266H18.26C18.3123 8.24096 18.3621 8.2194 18.3991 8.18237C18.4362 8.14533 18.4577 8.0956 18.4594 8.04325V5.39339H21.047C21.0993 5.39169 21.1491 5.37013 21.1861 5.3331C21.2231 5.29607 21.2447 5.24633 21.2464 5.19398V4.33512C21.2446 4.28287 21.2229 4.23326 21.1859 4.19634C21.1489 4.15941 21.0992 4.13793 21.047 4.13624H18.4594V2.16677H21.5604C21.5866 2.16684 21.6126 2.16173 21.6368 2.15173C21.661 2.14173 21.683 2.12705 21.7016 2.10852C21.7201 2.08999 21.7348 2.06798 21.7448 2.04375C21.7548 2.01953 21.7599 1.99357 21.7598 1.96736V1.11059C21.7598 1.08443 21.7547 1.05853 21.7446 1.03436C21.7346 1.0102 21.7199 0.98825 21.7014 0.969775C21.6829 0.9513 21.6609 0.936661 21.6367 0.926697C21.6125 0.916733 21.5866 0.91164 21.5604 0.911708H17.2965C17.2437 0.911708 17.193 0.932645 17.1556 0.969928C17.1183 1.00721 17.0972 1.0578 17.0971 1.11059V8.04534V8.04325ZM24.0486 8.04325C24.0503 8.0956 24.0718 8.14533 24.1088 8.18237C24.1459 8.2194 24.1956 8.24096 24.248 8.24266H25.222C25.2743 8.24096 25.3241 8.2194 25.3611 8.18237C25.3981 8.14533 25.4197 8.0956 25.4214 8.04325V1.11059C25.4195 1.05834 25.3979 1.00873 25.3609 0.971807C25.3239 0.934883 25.2742 0.913402 25.222 0.911708H24.248C24.1957 0.913402 24.146 0.934883 24.109 0.971807C24.072 1.00873 24.0504 1.05834 24.0486 1.11059V8.04534V8.04325ZM27.8378 4.58634C27.8372 5.08223 27.9347 5.57333 28.1249 6.03133C28.315 6.48932 28.5939 6.90513 28.9456 7.25478C29.2972 7.60443 29.7146 7.88099 30.1737 8.0685C30.6327 8.25602 31.1244 8.35079 31.6203 8.34733C32.5697 8.35797 33.4849 7.99258 34.166 7.33093C34.1854 7.31318 34.2011 7.29174 34.2122 7.26785C34.2232 7.24397 34.2294 7.21812 34.2304 7.19181C34.2314 7.16551 34.2271 7.13927 34.2178 7.11464C34.2086 7.09 34.1945 7.06745 34.1764 7.04831L33.5269 6.37786C33.4913 6.3449 33.4446 6.32659 33.3961 6.32659C33.3476 6.32659 33.3008 6.3449 33.2652 6.37786C32.817 6.75799 32.2498 6.96926 31.6621 6.97504C31.0338 6.95203 30.4388 6.6866 30.002 6.23443C29.5651 5.78227 29.3204 5.17849 29.319 4.54977C29.3176 3.92104 29.5598 3.31622 29.9947 2.86217C30.4296 2.40813 31.0235 2.14014 31.6517 2.11443C32.2463 2.12021 32.819 2.33959 33.2652 2.73254C33.2809 2.75217 33.3008 2.76803 33.3235 2.77892C33.3461 2.78982 33.3709 2.79548 33.3961 2.79548C33.4212 2.79548 33.446 2.78982 33.4687 2.77892C33.4913 2.76803 33.5112 2.75217 33.5269 2.73254L34.166 2.07256C34.1864 2.05359 34.2025 2.03045 34.2132 2.0047C34.2239 1.97896 34.2289 1.95121 34.2279 1.92336C34.2269 1.8955 34.2199 1.86819 34.2074 1.84327C34.1949 1.81835 34.1772 1.79641 34.1555 1.77894C33.8177 1.45791 33.4199 1.20665 32.9849 1.03951C32.5498 0.872384 32.0861 0.792672 31.6203 0.804939C31.1235 0.804043 30.6314 0.901247 30.1723 1.09098C29.7132 1.2807 29.296 1.55922 28.9448 1.91055C28.5935 2.26188 28.3151 2.6791 28.1255 3.13828C27.9359 3.59746 27.8389 4.08956 27.8399 4.58634H27.8378ZM36.5782 8.04325C36.5799 8.0956 36.6015 8.14533 36.6385 8.18237C36.6755 8.2194 36.7253 8.24096 36.7776 8.24266H37.7516C37.804 8.24096 37.8537 8.2194 37.8907 8.18237C37.9278 8.14533 37.9493 8.0956 37.951 8.04325V1.11059C37.9492 1.05834 37.9276 1.00873 37.8906 0.971807C37.8535 0.934883 37.8039 0.913402 37.7516 0.911708H36.7776C36.7254 0.913402 36.6757 0.934883 36.6387 0.971807C36.6017 1.00873 36.58 1.05834 36.5782 1.11059V8.04534V8.04325ZM40.1267 8.24266H41.0379C41.1042 8.24434 41.1693 8.22499 41.224 8.18739C41.2786 8.14978 41.3199 8.09584 41.342 8.03331L41.8554 6.90229H44.9878L45.5013 8.03331C45.5216 8.09697 45.5625 8.15208 45.6175 8.18997C45.6726 8.22787 45.7386 8.2464 45.8054 8.24266H46.7166C46.7498 8.24544 46.7832 8.23918 46.8133 8.22454C46.8433 8.20991 46.8688 8.18743 46.887 8.15949C46.9053 8.13155 46.9157 8.09919 46.9171 8.06583C46.9185 8.03247 46.9109 7.99935 46.895 7.96998L43.6679 0.920082C43.6545 0.884345 43.63 0.85386 43.5979 0.833127C43.5659 0.812395 43.528 0.802512 43.4899 0.804939H43.3853C43.3474 0.803962 43.3101 0.814427 43.2783 0.834967C43.2464 0.855508 43.2215 0.88517 43.2068 0.920082L39.9488 7.96998C39.9325 7.99958 39.9247 8.03307 39.9261 8.06681C39.9275 8.10056 39.9382 8.13326 39.9569 8.16137C39.9756 8.18948 40.0017 8.21192 40.0323 8.22625C40.0629 8.24058 40.0968 8.24626 40.1304 8.24266H40.1267ZM42.3689 5.73882L43.3957 3.43596H43.4271L44.4739 5.73882H42.3678H42.3689ZM48.8896 8.04168C48.8896 8.06789 48.8947 8.09385 48.9047 8.11807C48.9147 8.1423 48.9293 8.16431 48.9479 8.18284C48.9664 8.20137 48.9884 8.21605 49.0126 8.22605C49.0369 8.23604 49.0628 8.24116 49.089 8.24109H52.9264C52.9526 8.24116 52.9786 8.23604 53.0028 8.22605C53.0271 8.21605 53.0491 8.20137 53.0676 8.18284C53.0861 8.16431 53.1008 8.1423 53.1108 8.11807C53.1208 8.09385 53.1259 8.06789 53.1258 8.04168V7.18282C53.1258 7.15666 53.1207 7.13075 53.1106 7.10659C53.1006 7.08242 53.0859 7.06047 53.0674 7.042C53.0489 7.02353 53.0269 7.00889 53.0027 6.99892C52.9785 6.98896 52.9526 6.98386 52.9264 6.98393H50.2572V1.11059C50.2554 1.05834 50.2338 1.00873 50.1967 0.971807C50.1597 0.934883 50.1101 0.913402 50.0578 0.911708H49.0943C49.0681 0.91164 49.0422 0.916733 49.018 0.926697C48.9938 0.936661 48.9718 0.9513 48.9533 0.969775C48.9348 0.98825 48.9201 1.0102 48.91 1.03436C48.9 1.05853 48.8949 1.08443 48.8949 1.11059V8.04534L48.8896 8.04168ZM58.2057 7.52877C58.8442 8.07946 59.6658 8.37095 60.5086 8.34576C61.9861 8.34576 62.9161 7.35134 62.9161 6.27162C62.9161 4.92026 61.7427 4.31262 60.7263 3.90386C59.8779 3.55843 59.4901 3.22347 59.4901 2.73097C59.5164 2.51201 59.628 2.31226 59.8006 2.17507C59.9733 2.03788 60.1931 1.97434 60.4123 1.99824C60.9383 2.07532 61.4393 2.27309 61.8762 2.57605C61.9415 2.60744 62.0166 2.61187 62.0851 2.58836C62.1537 2.56486 62.2102 2.51531 62.2425 2.45044L62.6408 1.85326C62.6751 1.79814 62.6876 1.73228 62.676 1.66845C62.6644 1.60463 62.6295 1.54739 62.578 1.50784C61.9682 1.06577 61.2376 0.82086 60.4845 0.805986C58.8186 0.805986 58.1293 1.88467 58.1293 2.81733C58.1293 4.05354 59.1143 4.6816 60.0988 5.07989C60.9791 5.43631 61.4297 5.80267 61.4297 6.33599C61.4212 6.45198 61.3896 6.56509 61.3368 6.66872C61.284 6.77234 61.2111 6.8644 61.1223 6.9395C61.0335 7.01461 60.9306 7.07124 60.8197 7.1061C60.7087 7.14096 60.5919 7.15334 60.4762 7.14252C59.9028 7.06137 59.3589 6.83809 58.894 6.49301C58.8665 6.47236 58.835 6.45779 58.8014 6.45026C58.7679 6.44273 58.7332 6.44243 58.6995 6.44935C58.6658 6.45628 58.634 6.47029 58.6062 6.49045C58.5784 6.51061 58.5552 6.53646 58.5381 6.56628L58.1607 7.21579C58.1412 7.23893 58.1268 7.26605 58.1188 7.29527C58.1107 7.32449 58.1091 7.35512 58.114 7.38503C58.1189 7.41494 58.1303 7.44343 58.1473 7.46852C58.1643 7.49361 58.1866 7.5147 58.2125 7.53034L58.2057 7.52877ZM65.3038 8.04168C65.3055 8.09403 65.327 8.14376 65.3641 8.1808C65.4011 8.21783 65.4509 8.23939 65.5032 8.24109H66.4563C66.4825 8.24116 66.5084 8.23604 66.5327 8.22605C66.5569 8.21605 66.5789 8.20137 66.5974 8.18284C66.616 8.16431 66.6306 8.1423 66.6406 8.11807C66.6506 8.09385 66.6557 8.06789 66.6557 8.04168V3.53906H66.6661L71.0452 8.34733H71.297C71.3481 8.34792 71.3975 8.32858 71.4346 8.29342C71.4717 8.25825 71.4937 8.21001 71.4959 8.15892V1.11059C71.4942 1.05838 71.4727 1.00878 71.4357 0.971844C71.3988 0.934908 71.3492 0.913409 71.297 0.911708H70.3329C70.2802 0.911708 70.2296 0.932662 70.1923 0.96996C70.155 1.00726 70.134 1.05784 70.134 1.11059V5.43735H70.1236L65.7649 0.807033H65.5032C65.452 0.806306 65.4025 0.825582 65.3652 0.860765C65.328 0.895949 65.306 0.944266 65.3038 0.995449V8.04534V8.04168ZM74.0662 7.52877C74.7046 8.07946 75.5263 8.37095 76.369 8.34576C77.8465 8.34576 78.7766 7.35134 78.7766 6.27162C78.7766 4.92026 77.6031 4.31262 76.5873 3.90386C75.7384 3.55843 75.3505 3.22347 75.3505 2.73097C75.3768 2.51201 75.4884 2.31226 75.661 2.17507C75.8337 2.03788 76.0535 1.97434 76.2727 1.99824C76.7959 2.07609 77.2943 2.27306 77.7293 2.57396C77.7946 2.60549 77.8697 2.60999 77.9383 2.58647C78.0069 2.56295 78.0634 2.51331 78.0956 2.44834L78.4939 1.85117C78.5282 1.79605 78.5407 1.73019 78.5291 1.66636C78.5175 1.60253 78.4826 1.54529 78.4311 1.50574C77.8213 1.06368 77.0907 0.818767 76.3376 0.803893C74.6717 0.803893 73.9824 1.88257 73.9824 2.81523C73.9824 4.05145 74.9674 4.6795 75.9519 5.07779C76.8322 5.43421 77.2829 5.80058 77.2829 6.3339C77.2743 6.44988 77.2427 6.563 77.1899 6.66662C77.1371 6.77025 77.0642 6.86231 76.9754 6.93741C76.8866 7.01251 76.7837 7.06915 76.6728 7.10401C76.5618 7.13887 76.445 7.15125 76.3293 7.14042C75.7559 7.05927 75.212 6.83599 74.7471 6.49091C74.7196 6.47026 74.6881 6.45569 74.6545 6.44817C74.621 6.44064 74.5863 6.44033 74.5526 6.44726C74.519 6.45419 74.4871 6.4682 74.4593 6.48836C74.4315 6.50852 74.4083 6.53436 74.3912 6.56419L74.0138 7.2137C73.9941 7.23722 73.9798 7.26479 73.9719 7.29446C73.964 7.32413 73.9627 7.35517 73.9682 7.38538C73.9736 7.4156 73.9856 7.44425 74.0034 7.4693C74.0211 7.49435 74.0442 7.51519 74.0709 7.53034L74.0662 7.52877Z" fill="#40332A"/>
<path d="M78.1532 13.5669H1.21674C0.638631 13.5669 0.169983 14.0355 0.169983 14.6136C0.169983 15.1918 0.638631 15.6604 1.21674 15.6604H78.1532C78.7313 15.6604 79.2 15.1918 79.2 14.6136C79.2 14.0355 78.7313 13.5669 78.1532 13.5669Z" fill="#40332A"/>
</g>
</g>
</g>
<defs>
<clipPath id="clip0_770_469">
<rect width="79.03" height="15.59" fill="white" transform="translate(0.169983 0.439941)"/>
</clipPath>
<clipPath id="clip1_770_469">
<rect width="79.03" height="15.59" fill="white" transform="translate(0.169983 0.439941)"/>
</clipPath>
<clipPath id="clip2_770_469">
<rect width="79.03" height="14.8514" fill="white" transform="translate(0.169983 0.809326)"/>
</clipPath>
</defs>
</svg>
