<svg width="80" height="17" fill="none" xmlns="http://www.w3.org/2000/svg"><g clip-path="url(#a)"><g clip-path="url(#b)"><g clip-path="url(#c)" fill="#40332A"><path fill-rule="evenodd" clip-rule="evenodd" d="M.202 4.586A3.768 3.768 0 1 0 3.963.805 3.739 3.739 0 0 0 .202 4.586Zm1.36 0a2.404 2.404 0 1 1 2.4 2.4 2.423 2.423 0 0 1-2.398-2.4h-.001Zm8.584 3.457a.198.198 0 0 0 .123.184.2.2 0 0 0 .076.016h.964a.206.206 0 0 0 .199-.2v-2.65h2.588a.206.206 0 0 0 .199-.199v-.859a.206.206 0 0 0-.199-.199h-2.588v-1.97h3.1a.199.199 0 0 0 .2-.199v-.856a.198.198 0 0 0-.123-.184.199.199 0 0 0-.076-.015h-4.264a.199.199 0 0 0-.199.199v6.934-.002Zm6.951 0a.2.2 0 0 0 .2.2h.963a.206.206 0 0 0 .2-.2v-2.65h2.587a.206.206 0 0 0 .2-.199v-.859a.206.206 0 0 0-.2-.199h-2.588v-1.97h3.101a.199.199 0 0 0 .2-.199v-.856a.198.198 0 0 0-.123-.184.199.199 0 0 0-.077-.015h-4.263a.2.2 0 0 0-.2.199v6.934-.002Zm6.952 0a.206.206 0 0 0 .199.2h.974a.206.206 0 0 0 .2-.2V1.111a.207.207 0 0 0-.2-.2h-.974a.206.206 0 0 0-.2.2v6.934-.002Zm3.789-3.457a3.756 3.756 0 0 0 3.782 3.761 3.592 3.592 0 0 0 2.546-1.016.2.2 0 0 0 .01-.283l-.65-.67a.193.193 0 0 0-.26 0 2.517 2.517 0 0 1-1.604.597 2.432 2.432 0 0 1-.01-4.86 2.478 2.478 0 0 1 1.613.618.167.167 0 0 0 .262 0l.639-.66a.195.195 0 0 0-.01-.294A3.545 3.545 0 0 0 31.62.805a3.773 3.773 0 0 0-3.78 3.781h-.002Zm8.74 3.457a.206.206 0 0 0 .2.2h.974a.206.206 0 0 0 .199-.2V1.111a.206.206 0 0 0-.2-.2h-.973a.206.206 0 0 0-.2.2v6.934-.002Zm3.549.2h.91a.314.314 0 0 0 .305-.21l.513-1.13h3.133l.513 1.13a.302.302 0 0 0 .304.21h.912a.186.186 0 0 0 .178-.273L43.668.92a.178.178 0 0 0-.178-.115h-.105a.188.188 0 0 0-.178.115l-3.258 7.05a.185.185 0 0 0 .181.273h-.003Zm2.242-2.504 1.027-2.303h.031l1.047 2.303h-2.106Zm6.52 2.303a.2.2 0 0 0 .2.2h3.837a.199.199 0 0 0 .2-.2v-.86A.198.198 0 0 0 53.003 7a.199.199 0 0 0-.077-.015h-2.669V1.11a.206.206 0 0 0-.2-.2h-.963a.199.199 0 0 0-.2.2v6.934l-.004-.003Zm9.317-.513c.638.55 1.46.842 2.303.817 1.477 0 2.407-.995 2.407-2.074 0-1.352-1.173-1.96-2.19-2.368-.848-.346-1.236-.68-1.236-1.173a.838.838 0 0 1 .922-.733 3.446 3.446 0 0 1 1.464.578.276.276 0 0 0 .367-.126l.398-.597a.261.261 0 0 0-.063-.345 3.691 3.691 0 0 0-2.094-.702c-1.665 0-2.355 1.079-2.355 2.011 0 1.237.985 1.865 1.97 2.263.88.356 1.33.723 1.33 1.256a.874.874 0 0 1-.953.807 3.47 3.47 0 0 1-1.582-.65.242.242 0 0 0-.356.073l-.377.65a.21.21 0 0 0 .051.314l-.006-.001Zm7.098.513a.206.206 0 0 0 .2.2h.952a.2.2 0 0 0 .2-.2V3.539h.01l4.38 4.808h.251a.197.197 0 0 0 .199-.188V1.11a.205.205 0 0 0-.199-.2h-.964a.199.199 0 0 0-.199.2v4.326h-.01l-4.36-4.63h-.26a.197.197 0 0 0-.2.188v7.05-.003Zm8.762-.513c.639.55 1.46.842 2.303.817 1.478 0 2.408-.995 2.408-2.074 0-1.352-1.174-1.96-2.19-2.368-.849-.346-1.237-.68-1.237-1.173a.838.838 0 0 1 .923-.733 3.454 3.454 0 0 1 1.456.576.275.275 0 0 0 .367-.126l.398-.597a.261.261 0 0 0-.063-.345 3.691 3.691 0 0 0-2.093-.702c-1.666 0-2.356 1.079-2.356 2.011 0 1.236.985 1.865 1.97 2.263.88.356 1.33.723 1.33 1.256a.875.875 0 0 1-.953.806 3.47 3.47 0 0 1-1.582-.65.242.242 0 0 0-.356.074l-.377.65a.21.21 0 0 0 .057.316l-.005-.001Z"/><path d="M78.153 13.567H1.217a1.047 1.047 0 1 0 0 2.093h76.936a1.047 1.047 0 1 0 0-2.093Z"/></g></g></g><defs><clipPath id="a"><path fill="#fff" transform="translate(.17 .44)" d="M0 0h79.03v15.59H0z"/></clipPath><clipPath id="b"><path fill="#fff" transform="translate(.17 .44)" d="M0 0h79.03v15.59H0z"/></clipPath><clipPath id="c"><path fill="#fff" transform="translate(.17 .81)" d="M0 0h79.03v14.851H0z"/></clipPath></defs></svg>