<svg width="42" height="12" fill="none" xmlns="http://www.w3.org/2000/svg"><g clip-path="url(#a)"><g clip-path="url(#b)"><g clip-path="url(#c)"><g clip-path="url(#d)"><path fill-rule="evenodd" clip-rule="evenodd" d="M4.572 10.604a.195.195 0 0 0 .203.245h.957a.206.206 0 0 0 .192-.16l.618-4.036h.032l1.885 4.185a.19.19 0 0 0 .181.117h.192a.18.18 0 0 0 .181-.117l1.862-4.185h.032l.629 4.036a.231.231 0 0 0 .202.16h.97a.185.185 0 0 0 .191-.245l-1.257-7.156a.18.18 0 0 0-.192-.16h-.17a.184.184 0 0 0-.18.106L8.757 8.421h-.032l-2.34-5.027a.195.195 0 0 0-.182-.106h-.17a.18.18 0 0 0-.192.16l-1.27 7.156Zm10.845.042a.202.202 0 0 0 .203.203h4.335a.202.202 0 0 0 .202-.203v-.873a.202.202 0 0 0-.202-.202h-3.153V7.709h2.63a.202.202 0 0 0 .203-.202v-.884a.21.21 0 0 0-.202-.203h-2.631V4.674h3.153a.202.202 0 0 0 .202-.203V3.6a.202.202 0 0 0-.202-.203H15.62a.202.202 0 0 0-.203.203v7.05-.003Zm7.322 0a.21.21 0 0 0 .203.203h.969a.202.202 0 0 0 .202-.203V6.067h.01l4.453 4.888h.255a.2.2 0 0 0 .203-.191V3.599a.21.21 0 0 0-.203-.203h-.977a.202.202 0 0 0-.203.203v4.398h-.01l-4.43-4.707h-.266a.2.2 0 0 0-.203.192v7.166l-.003-.002Zm9.184-2.62a2.966 2.966 0 1 0 5.933 0V3.6a.21.21 0 0 0-.202-.203h-1.011a.202.202 0 0 0-.202.203v4.36a1.55 1.55 0 1 1-3.1-.01V3.599a.202.202 0 0 0-.202-.203h-1.011a.21.21 0 0 0-.202.203v4.43l-.002-.002Z" fill="#40332A"/></g></g></g></g><defs><clipPath id="a"><path fill="#fff" transform="translate(.42 .95)" d="M0 0h41.59v10.39H0z"/></clipPath><clipPath id="b"><path fill="#fff" transform="translate(4.58 2.97)" d="M0 0h33.27v8.31H0z"/></clipPath><clipPath id="c"><path fill="#fff" transform="translate(4.58 2.97)" d="M0 0h33.27v8.31H0z"/></clipPath><clipPath id="d"><path fill="#fff" transform="translate(4.58 3.293)" d="M0 0h33.27v7.665H0z"/></clipPath></defs></svg>